<svg width="142" height="26" viewBox="0 0 142 26" fill="none" xmlns="http://www.w3.org/2000/svg">
<path d="M91.4721 16.8159V18.962H82.5723V7.03917H84.9569V16.8159H91.4721Z" fill="#283681"/>
<path d="M32.1916 7.03917V18.962H38.153C39.734 18.962 41.2504 18.3339 42.3683 17.216C43.4863 16.098 44.1144 14.5817 44.1144 13.0006C44.1144 11.4195 43.4863 9.90321 42.3683 8.78523C41.2504 7.66725 39.734 7.03917 38.153 7.03917H32.1916ZM37.7542 16.5816H34.5725V9.42016H37.7524C38.701 9.42016 39.6108 9.79701 40.2816 10.4678C40.9524 11.1386 41.3292 12.0484 41.3292 12.997C41.3292 13.9457 40.9524 14.8554 40.2816 15.5262C39.6108 16.197 38.701 16.5739 37.7524 16.5739L37.7542 16.5816Z" fill="#283681"/>
<path d="M141.972 12.416C141.826 10.9229 141.131 9.53726 140.021 8.52839C138.91 7.51952 137.465 6.95947 135.965 6.95708C135.768 6.95708 135.57 6.96721 135.373 6.98629C133.979 7.12166 132.675 7.73721 131.685 8.72763C130.694 9.71806 130.079 11.0218 129.943 12.416C129.924 12.6174 129.915 12.8088 129.915 13.0008C129.916 14.352 130.369 15.664 131.203 16.7272C132.037 17.7905 133.203 18.5435 134.515 18.8662C135.827 19.1888 137.21 19.0623 138.442 18.507C139.673 17.9517 140.684 16.9995 141.311 15.8026H138.527C137.878 16.4768 136.99 16.8687 136.054 16.8935C135.119 16.9184 134.211 16.5743 133.527 15.9356C133.467 15.8801 133.411 15.8229 133.357 15.7657C133.017 15.4094 132.747 14.9922 132.562 14.5358L132.496 14.3719H141.843C141.947 13.9223 142 13.4623 142 13.0008C142.001 12.8064 141.99 12.6103 141.972 12.416ZM139.491 12.5233H132.292L132.306 12.3915C132.401 11.4905 132.827 10.6565 133.5 10.0501C134.173 9.44376 135.047 9.10775 135.953 9.10677C136.084 9.10668 136.215 9.11345 136.345 9.12704C137.18 9.21575 137.96 9.58819 138.554 10.1823C139.148 10.7763 139.521 11.5561 139.609 12.3915L139.623 12.5233H139.491Z" fill="#283681"/>
<path d="M80.9014 12.416C80.7561 10.9229 80.0607 9.53719 78.9506 8.52828C77.8404 7.51937 76.3947 6.95935 74.8946 6.95708C74.6985 6.95708 74.5 6.96721 74.3033 6.98629C72.9091 7.12175 71.6053 7.73731 70.6148 8.72771C69.6243 9.7181 69.0086 11.0218 68.873 12.416C68.8539 12.6174 68.8444 12.8088 68.8444 13.0008C68.8455 14.3519 69.2993 15.6637 70.1333 16.7266C70.9673 17.7896 72.1334 18.5424 73.4455 18.8649C74.7575 19.1875 76.1398 19.061 77.3716 18.5058C78.6033 17.9506 79.6135 16.9987 80.2408 15.802H77.4569C76.8078 16.4762 75.9197 16.8681 74.9842 16.8929C74.0487 16.9178 73.1409 16.5737 72.457 15.935C72.3974 15.8795 72.3378 15.8223 72.2871 15.7651C71.9468 15.409 71.6769 14.9917 71.4919 14.5352L71.4257 14.3713H80.7732C80.8775 13.9217 80.9299 13.4617 80.9294 13.0002C80.9294 12.8064 80.9204 12.6103 80.9014 12.416ZM78.4208 12.5233H71.2218L71.2355 12.3915C71.3313 11.4905 71.7567 10.6566 72.4301 10.0502C73.1034 9.4439 73.9772 9.10787 74.8833 9.10677C75.0141 9.10668 75.1449 9.11345 75.275 9.12704C76.1104 9.21575 76.8902 9.58819 77.4842 10.1822C78.0783 10.7763 78.4507 11.5561 78.5394 12.3915L78.5532 12.5233H78.4208Z" fill="#283681"/>
<path d="M57.1838 12.416C57.0382 10.923 56.3428 9.53745 55.2327 8.52859C54.1226 7.51973 52.6771 6.95961 51.177 6.95708C50.9809 6.95708 50.7818 6.96721 50.5851 6.98629C49.191 7.12166 47.8872 7.73721 46.8968 8.72763C45.9063 9.71806 45.2908 11.0218 45.1554 12.416C45.1357 12.6174 45.1268 12.8088 45.1268 13.0008C45.1275 14.352 45.581 15.664 46.4148 16.7272C47.2487 17.7905 48.4149 18.5435 49.7271 18.8662C51.0392 19.1888 52.4216 19.0623 53.6535 18.507C54.8853 17.9517 55.8955 16.9995 56.5226 15.8026H53.7387C53.0896 16.4768 52.2015 16.8687 51.266 16.8935C50.3305 16.9184 49.4228 16.5743 48.7388 15.9356C48.6792 15.8801 48.6196 15.8229 48.5689 15.7657C48.2288 15.4096 47.9591 14.9923 47.7743 14.5358L47.7075 14.3713H57.0556C57.1594 13.9216 57.2118 13.4617 57.2118 13.0002C57.2118 12.8064 57.2022 12.6103 57.1838 12.416ZM54.7026 12.5233H47.5036L47.5179 12.3915C47.6134 11.4905 48.0387 10.6565 48.712 10.0501C49.3853 9.44376 50.259 9.10775 51.1651 9.10677C51.2959 9.10668 51.4267 9.11345 51.5568 9.12704C52.3922 9.21575 53.172 9.58819 53.766 10.1823C54.3601 10.7763 54.7325 11.5561 54.8213 12.3915L54.835 12.5233H54.7026Z" fill="#283681"/>
<path d="M68.9962 7.03917L65.4193 18.962H60.6502L57.0734 7.03917H59.7757L63.0354 17.9045L66.2939 7.03917H68.9962Z" fill="#283681"/>
<path d="M103.55 7.03917V18.962H101.165V14.1929H95.8183V18.962H93.4337V7.03917H95.8183V11.8083H101.165V7.03917H103.55Z" fill="#283681"/>
<path d="M127.681 8.26008C127.294 7.87201 126.834 7.56435 126.327 7.35481C125.821 7.14528 125.278 7.03801 124.73 7.03918H118.769V18.9614H121.153V15.3846H124.73C125.555 15.3848 126.362 15.1401 127.049 14.6816C127.735 14.2232 128.27 13.5714 128.586 12.8088C128.902 12.0463 128.985 11.2071 128.824 10.3975C128.663 9.58795 128.265 8.84432 127.682 8.26067L127.681 8.26008ZM125.905 12.6852C125.712 12.8793 125.482 13.0333 125.229 13.1384C124.976 13.2436 124.705 13.2979 124.431 13.2981H121.153V9.12508H124.431C124.844 9.1254 125.247 9.24801 125.59 9.47742C125.933 9.70682 126.2 10.0327 126.358 10.4139C126.515 10.7951 126.557 11.2145 126.476 11.6191C126.395 12.0237 126.197 12.3953 125.905 12.687V12.6852Z" fill="#283681"/>
<path d="M111.213 6.83708C109.995 6.83708 108.803 7.19848 107.79 7.87556C106.777 8.55265 105.987 9.51501 105.521 10.641C105.054 11.7669 104.932 13.0058 105.17 14.2011C105.408 15.3964 105.995 16.4943 106.857 17.356C107.718 18.2177 108.816 18.8045 110.012 19.0422C111.207 19.2799 112.446 19.1578 113.572 18.6913C114.698 18.2249 115.66 17.435 116.337 16.4216C117.014 15.4083 117.375 14.2169 117.375 12.9982C117.375 11.364 116.726 9.79676 115.57 8.64121C114.415 7.48567 112.848 6.83649 111.213 6.83649V6.83708ZM111.213 16.7736C110.467 16.8139 109.725 16.6318 109.081 16.2503C108.438 15.8689 107.922 15.3052 107.599 14.6306C107.276 13.956 107.16 13.2007 107.266 12.4603C107.372 11.7199 107.696 11.0276 108.195 10.471C108.695 9.91432 109.348 9.51833 110.073 9.33307C110.798 9.1478 111.561 9.18158 112.266 9.43014C112.972 9.6787 113.588 10.1309 114.036 10.7295C114.485 11.3281 114.746 12.0462 114.786 12.7931C114.79 12.8611 114.792 12.9291 114.792 12.997C114.817 13.9721 114.455 14.9175 113.784 15.6256C113.113 16.3337 112.189 16.7466 111.213 16.7736Z" fill="#283681"/>
<path d="M12.519 0.481018C5.60373 0.481018 0 6.08476 0 13C0 19.9153 5.60373 25.519 12.519 25.519C19.4342 25.519 25.038 19.9153 25.038 13C25.038 6.08476 19.4342 0.481018 12.519 0.481018ZM17.8896 14.1923H16.1012C15.4688 14.1923 14.8622 14.4435 14.415 14.8907C13.9679 15.3379 13.7166 15.9444 13.7166 16.5769H11.3321C11.3321 15.9444 11.0808 15.3379 10.6336 14.8907C10.1864 14.4435 9.57992 14.1923 8.94749 14.1923H7.15907C6.10177 14.1923 5.07444 13.841 4.23857 13.1935C3.4027 12.546 2.80568 11.6392 2.54135 10.6154H5.09284C5.30212 10.9779 5.60314 11.2789 5.96562 11.4882C6.32811 11.6975 6.73931 11.8077 7.15787 11.8077H8.9463C9.62302 11.8069 10.2921 11.9505 10.9089 12.2289C11.5258 12.5073 12.0761 12.9141 12.5232 13.4221C12.9703 12.9142 13.5207 12.5075 14.1375 12.2291C14.7542 11.9507 15.4233 11.8071 16.1 11.8077H17.8884C18.3071 11.8078 18.7184 11.6977 19.081 11.4884C19.4436 11.2791 19.7447 10.978 19.9541 10.6154H22.5073C22.2424 11.6392 21.6449 12.5459 20.8088 13.1933C19.9727 13.8407 18.9453 14.1921 17.8878 14.1923H17.8896Z" fill="#283681"/>
</svg>
